<svg width="20" height="21" viewBox="0 0 20 21" fill="none" xmlns="http://www.w3.org/2000/svg">
<path d="M8.5333 14.4998L7.9333 16.8998L7.1333 17.6998H13.5333L12.7333 16.8998L12.1333 14.4998H8.5333ZM3.1333 11.2998H17.5333H3.1333ZM4.7333 14.4998H15.9333C16.3576 14.4998 16.7646 14.3312 17.0647 14.0312C17.3647 13.7311 17.5333 13.3242 17.5333 12.8998V4.8998C17.5333 4.47546 17.3647 4.06849 17.0647 3.76843C16.7646 3.46838 16.3576 3.2998 15.9333 3.2998H4.7333C4.30895 3.2998 3.90199 3.46838 3.60193 3.76843C3.30187 4.06849 3.1333 4.47546 3.1333 4.8998V12.8998C3.1333 13.3242 3.30187 13.7311 3.60193 14.0312C3.90199 14.3312 4.30895 14.4998 4.7333 14.4998Z" stroke="#2065D1" stroke-width="2" stroke-linecap="round" stroke-linejoin="round"/>
</svg>
