<svg width="20" height="21" viewBox="0 0 20 21" fill="none" xmlns="http://www.w3.org/2000/svg">
<path d="M9.2 17.6998V16.0998H15.6V10.4198C15.6 8.85981 15.0567 7.53647 13.97 6.44981C12.8833 5.36314 11.56 4.8198 10 4.8198C8.44 4.8198 7.11667 5.36314 6.03 6.44981C4.94333 7.53647 4.4 8.85981 4.4 10.4198V15.2998H3.6C3.16 15.2998 2.78333 15.1431 2.47 14.8298C2.15667 14.5165 2 14.1398 2 13.6998V12.0998C2 11.8198 2.07 11.5565 2.21 11.3098C2.35 11.0631 2.54667 10.8665 2.8 10.7198L2.86 9.65981C2.96667 8.75314 3.23 7.91314 3.65 7.1398C4.07 6.36647 4.59667 5.69314 5.23 5.1198C5.86333 4.54647 6.59 4.0998 7.41 3.7798C8.23 3.4598 9.09333 3.2998 10 3.2998C10.9067 3.2998 11.7667 3.4598 12.58 3.7798C13.3933 4.0998 14.12 4.54314 14.76 5.1098C15.4 5.67647 15.9267 6.34647 16.34 7.1198C16.7533 7.89314 17.02 8.73314 17.14 9.63981L17.2 10.6798C17.4533 10.7998 17.65 10.9798 17.79 11.2198C17.93 11.4598 18 11.7131 18 11.9798V13.8198C18 14.0865 17.93 14.3398 17.79 14.5798C17.65 14.8198 17.4533 14.9998 17.2 15.1198V16.0998C17.2 16.5398 17.0433 16.9165 16.73 17.2298C16.4167 17.5431 16.04 17.6998 15.6 17.6998H9.2ZM7.6 12.0998C7.37333 12.0998 7.18333 12.0231 7.03 11.8698C6.87667 11.7165 6.8 11.5265 6.8 11.2998C6.8 11.0731 6.87667 10.8831 7.03 10.7298C7.18333 10.5765 7.37333 10.4998 7.6 10.4998C7.82667 10.4998 8.01667 10.5765 8.17 10.7298C8.32333 10.8831 8.4 11.0731 8.4 11.2998C8.4 11.5265 8.32333 11.7165 8.17 11.8698C8.01667 12.0231 7.82667 12.0998 7.6 12.0998ZM12.4 12.0998C12.1733 12.0998 11.9833 12.0231 11.83 11.8698C11.6767 11.7165 11.6 11.5265 11.6 11.2998C11.6 11.0731 11.6767 10.8831 11.83 10.7298C11.9833 10.5765 12.1733 10.4998 12.4 10.4998C12.6267 10.4998 12.8167 10.5765 12.97 10.7298C13.1233 10.8831 13.2 11.0731 13.2 11.2998C13.2 11.5265 13.1233 11.7165 12.97 11.8698C12.8167 12.0231 12.6267 12.0998 12.4 12.0998ZM5.22 10.8598C5.12667 9.44647 5.55333 8.23314 6.5 7.21981C7.44667 6.20647 8.62667 5.6998 10.04 5.6998C11.2267 5.6998 12.27 6.07647 13.17 6.8298C14.07 7.58314 14.6133 8.54647 14.8 9.71981C13.5867 9.70647 12.47 9.37981 11.45 8.73981C10.43 8.0998 9.64667 7.23314 9.1 6.1398C8.88667 7.20647 8.43667 8.15647 7.75 8.98981C7.06333 9.82314 6.22 10.4465 5.22 10.8598Z" fill="#FF5722"/>
</svg>
