<svg width="20" height="21" viewBox="0 0 20 21" fill="none" xmlns="http://www.w3.org/2000/svg">
<g clip-path="url(#clip0_127_4273)">
<path d="M13.6665 16.8999H17.6665V15.2999C17.6665 14.8011 17.511 14.3147 17.2218 13.9084C16.9326 13.502 16.524 13.1958 16.0527 13.0325C15.5815 12.8691 15.071 12.8566 14.5923 12.9967C14.1136 13.1368 13.6905 13.4226 13.3817 13.8143M13.6665 16.8999L13.3817 13.8143M13.6665 16.8999H5.6665M13.6665 16.8999V15.2999C13.6665 14.7751 13.5657 14.2735 13.3817 13.8143M13.3817 13.8143C13.0846 13.0718 12.5719 12.4354 11.9097 11.9872C11.2475 11.5389 10.4662 11.2993 9.6665 11.2993C8.86684 11.2993 8.08551 11.5389 7.42331 11.9872C6.7611 12.4354 6.24839 13.0718 5.9513 13.8143M5.6665 16.8999H1.6665V15.2999C1.66654 14.8011 1.82197 14.3147 2.11119 13.9084C2.40041 13.502 2.80905 13.1958 3.2803 13.0325C3.75156 12.8691 4.26201 12.8566 4.74069 12.9967C5.21938 13.1368 5.64253 13.4226 5.9513 13.8143M5.6665 16.8999L5.9513 13.8143M5.6665 16.8999V15.2999C5.6665 14.7751 5.7673 14.2735 5.9513 13.8143M12.0665 6.49985C12.0665 7.13637 11.8136 7.74682 11.3636 8.19691C10.9135 8.647 10.303 8.89985 9.6665 8.89985C9.02998 8.89985 8.41953 8.647 7.96945 8.19691C7.51936 7.74682 7.2665 7.13637 7.2665 6.49985C7.2665 5.86333 7.51936 5.25288 7.96945 4.8028C8.41953 4.35271 9.02998 4.09985 9.6665 4.09985C10.303 4.09985 10.9135 4.35271 11.3636 4.8028C11.8136 5.25288 12.0665 5.86333 12.0665 6.49985ZM16.8665 8.89985C16.8665 9.3242 16.6979 9.73117 16.3979 10.0312C16.0978 10.3313 15.6909 10.4999 15.2665 10.4999C14.8422 10.4999 14.4352 10.3313 14.1351 10.0312C13.8351 9.73117 13.6665 9.3242 13.6665 8.89985C13.6665 8.47551 13.8351 8.06854 14.1351 7.76848C14.4352 7.46842 14.8422 7.29985 15.2665 7.29985C15.6909 7.29985 16.0978 7.46842 16.3979 7.76848C16.6979 8.06854 16.8665 8.47551 16.8665 8.89985ZM5.6665 8.89985C5.6665 9.3242 5.49793 9.73117 5.19787 10.0312C4.89782 10.3313 4.49085 10.4999 4.0665 10.4999C3.64216 10.4999 3.23519 10.3313 2.93513 10.0312C2.63507 9.73117 2.4665 9.3242 2.4665 8.89985C2.4665 8.47551 2.63507 8.06854 2.93513 7.76848C3.23519 7.46842 3.64216 7.29985 4.0665 7.29985C4.49085 7.29985 4.89782 7.46842 5.19787 7.76848C5.49793 8.06854 5.6665 8.47551 5.6665 8.89985Z" stroke="#3F51B5" stroke-width="2" stroke-linecap="round" stroke-linejoin="round"/>
</g>
<defs>
<clipPath id="clip0_127_4273">
<rect width="19.2" height="19.2" fill="white" transform="translate(0.0664062 0.899902)"/>
</clipPath>
</defs>
</svg>
