<svg width="20" height="21" viewBox="0 0 20 21" fill="none" xmlns="http://www.w3.org/2000/svg">
<path d="M12.0833 15.5001C11.5 15.5001 11.0069 15.2987 10.6042 14.8959C10.2014 14.4931 10 14.0001 10 13.4167C10 12.8334 10.2014 12.3404 10.6042 11.9376C11.0069 11.5348 11.5 11.3334 12.0833 11.3334C12.6667 11.3334 13.1597 11.5348 13.5625 11.9376C13.9653 12.3404 14.1667 12.8334 14.1667 13.4167C14.1667 14.0001 13.9653 14.4931 13.5625 14.8959C13.1597 15.2987 12.6667 15.5001 12.0833 15.5001ZM4.16667 18.8334C3.70833 18.8334 3.31597 18.6702 2.98958 18.3438C2.66319 18.0174 2.5 17.6251 2.5 17.1667V5.50008C2.5 5.04175 2.66319 4.64939 2.98958 4.323C3.31597 3.99661 3.70833 3.83341 4.16667 3.83341H5V2.16675H6.66667V3.83341H13.3333V2.16675H15V3.83341H15.8333C16.2917 3.83341 16.684 3.99661 17.0104 4.323C17.3368 4.64939 17.5 5.04175 17.5 5.50008V17.1667C17.5 17.6251 17.3368 18.0174 17.0104 18.3438C16.684 18.6702 16.2917 18.8334 15.8333 18.8334H4.16667ZM4.16667 17.1667H15.8333V8.83341H4.16667V17.1667ZM4.16667 7.16675H15.8333V5.50008H4.16667V7.16675Z" fill="#00A76F"/>
</svg>
