<svg width="20" height="21" viewBox="0 0 20 21" fill="none" xmlns="http://www.w3.org/2000/svg">
<path d="M9.66631 5.9023C10.6007 5.2815 11.8695 4.8999 13.2663 4.8999C14.6639 4.8999 15.9319 5.2815 16.8663 5.9023V16.3023C15.9319 15.6815 14.6639 15.2999 13.2663 15.2999C11.8695 15.2999 10.6007 15.6815 9.66631 16.3023M9.66631 5.9023V16.3023V5.9023ZM9.66631 5.9023C8.73191 5.2815 7.46311 4.8999 6.06631 4.8999C4.66951 4.8999 3.40071 5.2815 2.46631 5.9023V16.3023C3.40071 15.6815 4.66951 15.2999 6.06631 15.2999C7.46311 15.2999 8.73191 15.6815 9.66631 16.3023V5.9023Z" stroke="#F9B934" stroke-width="2" stroke-linecap="round" stroke-linejoin="round"/>
</svg>
