<svg width="20" height="21" viewBox="0 0 20 21" fill="none" xmlns="http://www.w3.org/2000/svg">
<path d="M17.5333 12.3038C15.2457 13.2288 12.8008 13.7028 10.3333 13.6998C7.7869 13.6998 5.3573 13.2038 3.1333 12.3038M10.3333 11.2998H10.3413M13.5333 6.4998V4.8998C13.5333 4.47546 13.3647 4.06849 13.0647 3.76843C12.7646 3.46838 12.3576 3.2998 11.9333 3.2998H8.7333C8.30895 3.2998 7.90199 3.46838 7.60193 3.76843C7.30187 4.06849 7.1333 4.47546 7.1333 4.8998V6.4998H13.5333ZM4.7333 17.6998H15.9333C16.3576 17.6998 16.7646 17.5312 17.0647 17.2312C17.3647 16.9311 17.5333 16.5242 17.5333 16.0998V8.09981C17.5333 7.67546 17.3647 7.26849 17.0647 6.96843C16.7646 6.66838 16.3576 6.4998 15.9333 6.4998H4.7333C4.30895 6.4998 3.90199 6.66838 3.60193 6.96843C3.30187 7.26849 3.1333 7.67546 3.1333 8.09981V16.0998C3.1333 16.5242 3.30187 16.9311 3.60193 17.2312C3.90199 17.5312 4.30895 17.6998 4.7333 17.6998Z" stroke="#9C27B0" stroke-width="2" stroke-linecap="round" stroke-linejoin="round"/>
</svg>
