<svg width="32" height="32" viewBox="0 0 32 32" fill="none" xmlns="http://www.w3.org/2000/svg">
<g opacity="0.8">
<path fill-rule="evenodd" clip-rule="evenodd" d="M16.0002 26.6667C18.8291 26.6667 21.5422 25.5429 23.5426 23.5425C25.543 21.5421 26.6668 18.829 26.6668 16C26.6668 13.1711 25.543 10.458 23.5426 8.45757C21.5422 6.45718 18.8291 5.33337 16.0002 5.33337C13.1712 5.33337 10.4581 6.45718 8.45769 8.45757C6.4573 10.458 5.3335 13.1711 5.3335 16C5.3335 18.829 6.4573 21.5421 8.45769 23.5425C10.4581 25.5429 13.1712 26.6667 16.0002 26.6667ZM16.9428 12.9427C17.1857 12.6912 17.3201 12.3544 17.3171 12.0048C17.314 11.6552 17.1738 11.3208 16.9266 11.0736C16.6794 10.8264 16.345 10.6862 15.9954 10.6831C15.6458 10.6801 15.309 10.8145 15.0575 11.0574L11.0575 15.0574C10.8075 15.3074 10.6671 15.6465 10.6671 16C10.6671 16.3536 10.8075 16.6927 11.0575 16.9427L15.0575 20.9427C15.309 21.1856 15.6458 21.32 15.9954 21.3169C16.345 21.3139 16.6794 21.1737 16.9266 20.9265C17.1738 20.6793 17.314 20.3448 17.3171 19.9952C17.3201 19.6456 17.1857 19.3088 16.9428 19.0574L15.2188 17.3334H20.0002C20.3538 17.3334 20.6929 17.1929 20.943 16.9428C21.193 16.6928 21.3335 16.3537 21.3335 16C21.3335 15.6464 21.193 15.3073 20.943 15.0572C20.6929 14.8072 20.3538 14.6667 20.0002 14.6667H15.2188L16.9428 12.9427Z" fill="white"/>
</g>
</svg>
