<svg width="32" height="32" viewBox="0 0 32 32" fill="none" xmlns="http://www.w3.org/2000/svg">
<g opacity="0.8">
<path fill-rule="evenodd" clip-rule="evenodd" d="M15.9998 5.33329C13.1709 5.33329 10.4578 6.4571 8.45737 8.45749C6.45698 10.4579 5.33317 13.171 5.33317 16C5.33317 18.8289 6.45698 21.542 8.45737 23.5424C10.4578 25.5428 13.1709 26.6666 15.9998 26.6666C18.8288 26.6666 21.5419 25.5428 23.5423 23.5424C25.5427 21.542 26.6665 18.8289 26.6665 16C26.6665 13.171 25.5427 10.4579 23.5423 8.45749C21.5419 6.4571 18.8288 5.33329 15.9998 5.33329ZM15.0572 19.0573C14.8143 19.3088 14.6799 19.6456 14.6829 19.9952C14.686 20.3448 14.8262 20.6792 15.0734 20.9264C15.3206 21.1736 15.655 21.3138 16.0046 21.3169C16.3542 21.3199 16.691 21.1855 16.9425 20.9426L20.9425 16.9426C21.1925 16.6926 21.3329 16.3535 21.3329 16C21.3329 15.6464 21.1925 15.3073 20.9425 15.0573L16.9425 11.0573C16.691 10.8144 16.3542 10.68 16.0046 10.6831C15.655 10.6861 15.3206 10.8263 15.0734 11.0735C14.8262 11.3207 14.686 11.6552 14.6829 12.0048C14.6799 12.3544 14.8143 12.6912 15.0572 12.9426L16.7812 14.6666H11.9998C11.6462 14.6666 11.3071 14.8071 11.057 15.0572C10.807 15.3072 10.6665 15.6463 10.6665 16C10.6665 16.3536 10.807 16.6927 11.057 16.9428C11.3071 17.1928 11.6462 17.3333 11.9998 17.3333H16.7812L15.0572 19.0573Z" fill="white"/>
</g>
</svg>
